solid OpenSCAD_Model
  facet normal -1 0 0
    outer loop
      vertex -6.3 29.37 -0.25
      vertex -6.3 49.37 7.25
      vertex -6.3 49.37 -0.25
    endloop
  endfacet
  facet normal -1 -0 0
    outer loop
      vertex -6.3 49.37 7.25
      vertex -6.3 29.37 -0.25
      vertex -6.3 29.37 7.25
    endloop
  endfacet
  facet normal 0 0 1
    outer loop
      vertex -0.800001 49.37 7.25
      vertex -6.3 49.37 7.25
      vertex -0.800001 43.77 7.25
    endloop
  endfacet
  facet normal 0 0 1
    outer loop
      vertex 0.8 43.77 7.25
      vertex 6.3 49.37 7.25
      vertex 0.8 49.37 7.25
    endloop
  endfacet
  facet normal 0 0 1
    outer loop
      vertex 6.3 49.37 7.25
      vertex 0.8 43.77 7.25
      vertex 6.3 29.37 7.25
    endloop
  endfacet
  facet normal -0 0 1
    outer loop
      vertex -0.800001 43.77 7.25
      vertex 6.3 29.37 7.25
      vertex 0.8 43.77 7.25
    endloop
  endfacet
  facet normal 0 0 1
    outer loop
      vertex -6.3 29.37 7.25
      vertex -0.800001 43.77 7.25
      vertex -6.3 49.37 7.25
    endloop
  endfacet
  facet normal 0 0 1
    outer loop
      vertex -0.800001 43.77 7.25
      vertex -6.3 29.37 7.25
      vertex 6.3 29.37 7.25
    endloop
  endfacet
  facet normal 1 -0 0
    outer loop
      vertex 6.3 29.37 7.25
      vertex 6.3 49.37 -0.25
      vertex 6.3 49.37 7.25
    endloop
  endfacet
  facet normal 1 0 0
    outer loop
      vertex 6.3 49.37 -0.25
      vertex 6.3 29.37 7.25
      vertex 6.3 29.37 -0.25
    endloop
  endfacet
  facet normal 0 0 -1
    outer loop
      vertex 6.3 29.37 -0.25
      vertex 0.8 43.77 -0.25
      vertex 6.3 49.37 -0.25
    endloop
  endfacet
  facet normal 0 0 -1
    outer loop
      vertex 6.3 29.37 -0.25
      vertex -0.800001 43.77 -0.25
      vertex 0.8 43.77 -0.25
    endloop
  endfacet
  facet normal 0 0 -1
    outer loop
      vertex -6.3 29.37 -0.25
      vertex -0.800001 43.77 -0.25
      vertex 6.3 29.37 -0.25
    endloop
  endfacet
  facet normal 0 0 -1
    outer loop
      vertex -6.3 49.37 -0.25
      vertex -0.800001 43.77 -0.25
      vertex -6.3 29.37 -0.25
    endloop
  endfacet
  facet normal 0 0 -1
    outer loop
      vertex -0.800001 43.77 -0.25
      vertex -6.3 49.37 -0.25
      vertex -0.800001 49.37 -0.25
    endloop
  endfacet
  facet normal -0 0 -1
    outer loop
      vertex 6.3 49.37 -0.25
      vertex 0.8 43.77 -0.25
      vertex 0.8 49.37 -0.25
    endloop
  endfacet
  facet normal 0 -1 0
    outer loop
      vertex -6.3 29.37 7.25
      vertex -2 29.37 6.25
      vertex 6.3 29.37 7.25
    endloop
  endfacet
  facet normal 0 -1 0
    outer loop
      vertex -6.3 29.37 7.25
      vertex -2 29.37 0.75
      vertex -2 29.37 6.25
    endloop
  endfacet
  facet normal 0 -1 -0
    outer loop
      vertex -2 29.37 0.75
      vertex -6.3 29.37 -0.25
      vertex 2 29.37 0.75
    endloop
  endfacet
  facet normal 0 -1 0
    outer loop
      vertex -6.3 29.37 -0.25
      vertex -2 29.37 0.75
      vertex -6.3 29.37 7.25
    endloop
  endfacet
  facet normal 0 -1 0
    outer loop
      vertex 2 29.37 6.25
      vertex 6.3 29.37 7.25
      vertex -2 29.37 6.25
    endloop
  endfacet
  facet normal 0 -1 0
    outer loop
      vertex 2 29.37 0.75
      vertex 6.3 29.37 7.25
      vertex 2 29.37 6.25
    endloop
  endfacet
  facet normal 0 -1 0
    outer loop
      vertex 2 29.37 0.75
      vertex 6.3 29.37 -0.25
      vertex 6.3 29.37 7.25
    endloop
  endfacet
  facet normal 0 -1 0
    outer loop
      vertex 6.3 29.37 -0.25
      vertex 2 29.37 0.75
      vertex -6.3 29.37 -0.25
    endloop
  endfacet
  facet normal 0 1 -0
    outer loop
      vertex 6.3 49.37 -0.25
      vertex 0.8 49.37 7.25
      vertex 6.3 49.37 7.25
    endloop
  endfacet
  facet normal 0 1 0
    outer loop
      vertex 0.8 49.37 7.25
      vertex 6.3 49.37 -0.25
      vertex 0.8 49.37 -0.25
    endloop
  endfacet
  facet normal 0 1 -0
    outer loop
      vertex -0.800001 49.37 -0.25
      vertex -6.3 49.37 7.25
      vertex -0.800001 49.37 7.25
    endloop
  endfacet
  facet normal 0 1 0
    outer loop
      vertex -6.3 49.37 7.25
      vertex -0.800001 49.37 -0.25
      vertex -6.3 49.37 -0.25
    endloop
  endfacet
  facet normal 1 0 0
    outer loop
      vertex -0.800001 49.37 7.25
      vertex -0.800001 44.37 6.75
      vertex -0.800001 49.37 -0.25
    endloop
  endfacet
  facet normal 1 -0 0
    outer loop
      vertex -0.800001 43.77 7.25
      vertex -0.800001 44.37 6.75
      vertex -0.800001 49.37 7.25
    endloop
  endfacet
  facet normal 1 0 0
    outer loop
      vertex -0.800001 44.37 6.75
      vertex -0.800001 43.77 7.25
      vertex -0.800001 43.77 6.75
    endloop
  endfacet
  facet normal 1 -0 0
    outer loop
      vertex -0.800001 44.37 0.25
      vertex -0.800001 49.37 -0.25
      vertex -0.800001 44.37 6.75
    endloop
  endfacet
  facet normal 1 0 0
    outer loop
      vertex -0.800001 43.77 -0.25
      vertex -0.800001 44.37 0.25
      vertex -0.800001 43.77 0.25
    endloop
  endfacet
  facet normal 1 0 0
    outer loop
      vertex -0.800001 44.37 0.25
      vertex -0.800001 43.77 -0.25
      vertex -0.800001 49.37 -0.25
    endloop
  endfacet
  facet normal -1 0 0
    outer loop
      vertex 0.8 49.37 -0.25
      vertex 0.8 44.37 0.25
      vertex 0.8 49.37 7.25
    endloop
  endfacet
  facet normal -1 0 0
    outer loop
      vertex 0.8 43.77 -0.25
      vertex 0.8 44.37 0.25
      vertex 0.8 49.37 -0.25
    endloop
  endfacet
  facet normal -1 -0 0
    outer loop
      vertex 0.8 44.37 0.25
      vertex 0.8 43.77 -0.25
      vertex 0.8 43.77 0.25
    endloop
  endfacet
  facet normal -1 0 0
    outer loop
      vertex 0.8 44.37 6.75
      vertex 0.8 49.37 7.25
      vertex 0.8 44.37 0.25
    endloop
  endfacet
  facet normal -1 0 0
    outer loop
      vertex 0.8 43.77 7.25
      vertex 0.8 44.37 6.75
      vertex 0.8 43.77 6.75
    endloop
  endfacet
  facet normal -1 0 0
    outer loop
      vertex 0.8 44.37 6.75
      vertex 0.8 43.77 7.25
      vertex 0.8 49.37 7.25
    endloop
  endfacet
  facet normal 0 1 -0
    outer loop
      vertex 0.8 43.77 6.75
      vertex -0.800001 43.77 7.25
      vertex 0.8 43.77 7.25
    endloop
  endfacet
  facet normal 0 1 0
    outer loop
      vertex -0.800001 43.77 7.25
      vertex 0.8 43.77 6.75
      vertex -0.800001 43.77 6.75
    endloop
  endfacet
  facet normal 0 1 -0
    outer loop
      vertex 0.8 43.77 -0.25
      vertex -0.800001 43.77 0.25
      vertex 0.8 43.77 0.25
    endloop
  endfacet
  facet normal 0 1 0
    outer loop
      vertex -0.800001 43.77 0.25
      vertex 0.8 43.77 -0.25
      vertex -0.800001 43.77 -0.25
    endloop
  endfacet
  facet normal 1 -0 0
    outer loop
      vertex -3 30.37 6.75
      vertex -3 44.37 0.25
      vertex -3 44.37 6.75
    endloop
  endfacet
  facet normal 1 0 0
    outer loop
      vertex -3 44.37 0.25
      vertex -3 30.37 6.75
      vertex -3 30.37 0.25
    endloop
  endfacet
  facet normal 0 0 -1
    outer loop
      vertex 3 30.37 6.75
      vertex 0.8 43.77 6.75
      vertex 3 44.37 6.75
    endloop
  endfacet
  facet normal 0 0 -1
    outer loop
      vertex 3 30.37 6.75
      vertex -0.800001 43.77 6.75
      vertex 0.8 43.77 6.75
    endloop
  endfacet
  facet normal 0 0 -1
    outer loop
      vertex -3 30.37 6.75
      vertex -0.800001 43.77 6.75
      vertex 3 30.37 6.75
    endloop
  endfacet
  facet normal 0 0 -1
    outer loop
      vertex -3 44.37 6.75
      vertex -0.800001 43.77 6.75
      vertex -3 30.37 6.75
    endloop
  endfacet
  facet normal 0 0 -1
    outer loop
      vertex -0.800001 43.77 6.75
      vertex -3 44.37 6.75
      vertex -0.800001 44.37 6.75
    endloop
  endfacet
  facet normal -0 0 -1
    outer loop
      vertex 3 44.37 6.75
      vertex 0.8 43.77 6.75
      vertex 0.8 44.37 6.75
    endloop
  endfacet
  facet normal -1 0 0
    outer loop
      vertex 3 30.37 0.25
      vertex 3 44.37 6.75
      vertex 3 44.37 0.25
    endloop
  endfacet
  facet normal -1 -0 0
    outer loop
      vertex 3 44.37 6.75
      vertex 3 30.37 0.25
      vertex 3 30.37 6.75
    endloop
  endfacet
  facet normal 0 -1 0
    outer loop
      vertex 0.8 44.37 0.25
      vertex 3 44.37 6.75
      vertex 0.8 44.37 6.75
    endloop
  endfacet
  facet normal 0 -1 -0
    outer loop
      vertex 3 44.37 6.75
      vertex 0.8 44.37 0.25
      vertex 3 44.37 0.25
    endloop
  endfacet
  facet normal 0 -1 0
    outer loop
      vertex -3 44.37 0.25
      vertex -0.800001 44.37 6.75
      vertex -3 44.37 6.75
    endloop
  endfacet
  facet normal 0 -1 -0
    outer loop
      vertex -0.800001 44.37 6.75
      vertex -3 44.37 0.25
      vertex -0.800001 44.37 0.25
    endloop
  endfacet
  facet normal 0 0 1
    outer loop
      vertex -0.800001 44.37 0.25
      vertex -3 44.37 0.25
      vertex -0.800001 43.77 0.25
    endloop
  endfacet
  facet normal 0 0 1
    outer loop
      vertex 0.8 43.77 0.25
      vertex 3 44.37 0.25
      vertex 0.8 44.37 0.25
    endloop
  endfacet
  facet normal 0 0 1
    outer loop
      vertex 3 44.37 0.25
      vertex 0.8 43.77 0.25
      vertex 3 30.37 0.25
    endloop
  endfacet
  facet normal -0 0 1
    outer loop
      vertex -0.800001 43.77 0.25
      vertex 3 30.37 0.25
      vertex 0.8 43.77 0.25
    endloop
  endfacet
  facet normal 0 0 1
    outer loop
      vertex -3 30.37 0.25
      vertex -0.800001 43.77 0.25
      vertex -3 44.37 0.25
    endloop
  endfacet
  facet normal 0 0 1
    outer loop
      vertex -0.800001 43.77 0.25
      vertex -3 30.37 0.25
      vertex 3 30.37 0.25
    endloop
  endfacet
  facet normal 0 1 0
    outer loop
      vertex 3 30.37 6.75
      vertex 2 30.37 6.25
      vertex -3 30.37 6.75
    endloop
  endfacet
  facet normal 0 1 0
    outer loop
      vertex 3 30.37 6.75
      vertex 2 30.37 0.75
      vertex 2 30.37 6.25
    endloop
  endfacet
  facet normal 0 1 0
    outer loop
      vertex 2 30.37 0.75
      vertex 3 30.37 0.25
      vertex -2 30.37 0.75
    endloop
  endfacet
  facet normal 0 1 -0
    outer loop
      vertex 3 30.37 0.25
      vertex 2 30.37 0.75
      vertex 3 30.37 6.75
    endloop
  endfacet
  facet normal 0 1 -0
    outer loop
      vertex -2 30.37 6.25
      vertex -3 30.37 6.75
      vertex 2 30.37 6.25
    endloop
  endfacet
  facet normal 0 1 -0
    outer loop
      vertex -2 30.37 0.75
      vertex -3 30.37 6.75
      vertex -2 30.37 6.25
    endloop
  endfacet
  facet normal 0 1 0
    outer loop
      vertex -2 30.37 0.75
      vertex -3 30.37 0.25
      vertex -3 30.37 6.75
    endloop
  endfacet
  facet normal 0 1 0
    outer loop
      vertex -3 30.37 0.25
      vertex -2 30.37 0.75
      vertex 3 30.37 0.25
    endloop
  endfacet
  facet normal 1 -0 0
    outer loop
      vertex -2 29.37 6.25
      vertex -2 30.37 0.75
      vertex -2 30.37 6.25
    endloop
  endfacet
  facet normal 1 0 0
    outer loop
      vertex -2 30.37 0.75
      vertex -2 29.37 6.25
      vertex -2 29.37 0.75
    endloop
  endfacet
  facet normal 0 0 -1
    outer loop
      vertex -2 29.37 6.25
      vertex 2 30.37 6.25
      vertex 2 29.37 6.25
    endloop
  endfacet
  facet normal -0 0 -1
    outer loop
      vertex 2 30.37 6.25
      vertex -2 29.37 6.25
      vertex -2 30.37 6.25
    endloop
  endfacet
  facet normal -1 0 0
    outer loop
      vertex 2 29.37 0.75
      vertex 2 30.37 6.25
      vertex 2 30.37 0.75
    endloop
  endfacet
  facet normal -1 -0 0
    outer loop
      vertex 2 30.37 6.25
      vertex 2 29.37 0.75
      vertex 2 29.37 6.25
    endloop
  endfacet
  facet normal -0 0 1
    outer loop
      vertex -2 30.37 0.75
      vertex 2 29.37 0.75
      vertex 2 30.37 0.75
    endloop
  endfacet
  facet normal 0 0 1
    outer loop
      vertex 2 29.37 0.75
      vertex -2 30.37 0.75
      vertex -2 29.37 0.75
    endloop
  endfacet
endsolid OpenSCAD_Model
