solid OpenSCAD_Model
  facet normal -1 0 0
    outer loop
      vertex 25.97 16.37 -0.25
      vertex 25.97 36.37 7.25
      vertex 25.97 36.37 -0.25
    endloop
  endfacet
  facet normal -1 -0 0
    outer loop
      vertex 25.97 36.37 7.25
      vertex 25.97 16.37 -0.25
      vertex 25.97 16.37 7.25
    endloop
  endfacet
  facet normal 0 0 1
    outer loop
      vertex 31.47 36.37 7.25
      vertex 25.97 36.37 7.25
      vertex 31.47 30.77 7.25
    endloop
  endfacet
  facet normal 0 0 1
    outer loop
      vertex 33.07 30.77 7.25
      vertex 38.57 36.37 7.25
      vertex 33.07 36.37 7.25
    endloop
  endfacet
  facet normal 0 0 1
    outer loop
      vertex 38.57 36.37 7.25
      vertex 33.07 30.77 7.25
      vertex 38.57 16.37 7.25
    endloop
  endfacet
  facet normal -0 0 1
    outer loop
      vertex 31.47 30.77 7.25
      vertex 38.57 16.37 7.25
      vertex 33.07 30.77 7.25
    endloop
  endfacet
  facet normal 0 0 1
    outer loop
      vertex 25.97 16.37 7.25
      vertex 31.47 30.77 7.25
      vertex 25.97 36.37 7.25
    endloop
  endfacet
  facet normal 0 0 1
    outer loop
      vertex 31.47 30.77 7.25
      vertex 25.97 16.37 7.25
      vertex 38.57 16.37 7.25
    endloop
  endfacet
  facet normal 1 -0 0
    outer loop
      vertex 38.57 16.37 7.25
      vertex 38.57 36.37 -0.25
      vertex 38.57 36.37 7.25
    endloop
  endfacet
  facet normal 1 0 0
    outer loop
      vertex 38.57 36.37 -0.25
      vertex 38.57 16.37 7.25
      vertex 38.57 16.37 -0.25
    endloop
  endfacet
  facet normal 0 0 -1
    outer loop
      vertex 38.57 16.37 -0.25
      vertex 33.07 30.77 -0.25
      vertex 38.57 36.37 -0.25
    endloop
  endfacet
  facet normal 0 0 -1
    outer loop
      vertex 38.57 16.37 -0.25
      vertex 31.47 30.77 -0.25
      vertex 33.07 30.77 -0.25
    endloop
  endfacet
  facet normal 0 0 -1
    outer loop
      vertex 25.97 16.37 -0.25
      vertex 31.47 30.77 -0.25
      vertex 38.57 16.37 -0.25
    endloop
  endfacet
  facet normal 0 0 -1
    outer loop
      vertex 25.97 36.37 -0.25
      vertex 31.47 30.77 -0.25
      vertex 25.97 16.37 -0.25
    endloop
  endfacet
  facet normal 0 0 -1
    outer loop
      vertex 31.47 30.77 -0.25
      vertex 25.97 36.37 -0.25
      vertex 31.47 36.37 -0.25
    endloop
  endfacet
  facet normal -0 0 -1
    outer loop
      vertex 38.57 36.37 -0.25
      vertex 33.07 30.77 -0.25
      vertex 33.07 36.37 -0.25
    endloop
  endfacet
  facet normal 0 -1 0
    outer loop
      vertex 25.97 16.37 7.25
      vertex 30.27 16.37 6.25
      vertex 38.57 16.37 7.25
    endloop
  endfacet
  facet normal 0 -1 0
    outer loop
      vertex 25.97 16.37 7.25
      vertex 30.27 16.37 0.75
      vertex 30.27 16.37 6.25
    endloop
  endfacet
  facet normal 0 -1 -0
    outer loop
      vertex 30.27 16.37 0.75
      vertex 25.97 16.37 -0.25
      vertex 34.27 16.37 0.75
    endloop
  endfacet
  facet normal 0 -1 0
    outer loop
      vertex 25.97 16.37 -0.25
      vertex 30.27 16.37 0.75
      vertex 25.97 16.37 7.25
    endloop
  endfacet
  facet normal 0 -1 0
    outer loop
      vertex 34.27 16.37 6.25
      vertex 38.57 16.37 7.25
      vertex 30.27 16.37 6.25
    endloop
  endfacet
  facet normal 0 -1 0
    outer loop
      vertex 34.27 16.37 0.75
      vertex 38.57 16.37 7.25
      vertex 34.27 16.37 6.25
    endloop
  endfacet
  facet normal 0 -1 0
    outer loop
      vertex 34.27 16.37 0.75
      vertex 38.57 16.37 -0.25
      vertex 38.57 16.37 7.25
    endloop
  endfacet
  facet normal 0 -1 0
    outer loop
      vertex 38.57 16.37 -0.25
      vertex 34.27 16.37 0.75
      vertex 25.97 16.37 -0.25
    endloop
  endfacet
  facet normal 0 1 -0
    outer loop
      vertex 38.57 36.37 -0.25
      vertex 33.07 36.37 7.25
      vertex 38.57 36.37 7.25
    endloop
  endfacet
  facet normal 0 1 0
    outer loop
      vertex 33.07 36.37 7.25
      vertex 38.57 36.37 -0.25
      vertex 33.07 36.37 -0.25
    endloop
  endfacet
  facet normal 0 1 -0
    outer loop
      vertex 31.47 36.37 -0.25
      vertex 25.97 36.37 7.25
      vertex 31.47 36.37 7.25
    endloop
  endfacet
  facet normal 0 1 0
    outer loop
      vertex 25.97 36.37 7.25
      vertex 31.47 36.37 -0.25
      vertex 25.97 36.37 -0.25
    endloop
  endfacet
  facet normal 1 0 0
    outer loop
      vertex 31.47 36.37 7.25
      vertex 31.47 31.37 6.75
      vertex 31.47 36.37 -0.25
    endloop
  endfacet
  facet normal 1 -0 0
    outer loop
      vertex 31.47 30.77 7.25
      vertex 31.47 31.37 6.75
      vertex 31.47 36.37 7.25
    endloop
  endfacet
  facet normal 1 0 0
    outer loop
      vertex 31.47 31.37 6.75
      vertex 31.47 30.77 7.25
      vertex 31.47 30.77 6.75
    endloop
  endfacet
  facet normal 1 -0 0
    outer loop
      vertex 31.47 31.37 0.25
      vertex 31.47 36.37 -0.25
      vertex 31.47 31.37 6.75
    endloop
  endfacet
  facet normal 1 0 0
    outer loop
      vertex 31.47 30.77 -0.25
      vertex 31.47 31.37 0.25
      vertex 31.47 30.77 0.25
    endloop
  endfacet
  facet normal 1 0 0
    outer loop
      vertex 31.47 31.37 0.25
      vertex 31.47 30.77 -0.25
      vertex 31.47 36.37 -0.25
    endloop
  endfacet
  facet normal -1 0 0
    outer loop
      vertex 33.07 36.37 -0.25
      vertex 33.07 31.37 0.25
      vertex 33.07 36.37 7.25
    endloop
  endfacet
  facet normal -1 0 0
    outer loop
      vertex 33.07 30.77 -0.25
      vertex 33.07 31.37 0.25
      vertex 33.07 36.37 -0.25
    endloop
  endfacet
  facet normal -1 -0 0
    outer loop
      vertex 33.07 31.37 0.25
      vertex 33.07 30.77 -0.25
      vertex 33.07 30.77 0.25
    endloop
  endfacet
  facet normal -1 0 0
    outer loop
      vertex 33.07 31.37 6.75
      vertex 33.07 36.37 7.25
      vertex 33.07 31.37 0.25
    endloop
  endfacet
  facet normal -1 0 0
    outer loop
      vertex 33.07 30.77 7.25
      vertex 33.07 31.37 6.75
      vertex 33.07 30.77 6.75
    endloop
  endfacet
  facet normal -1 0 0
    outer loop
      vertex 33.07 31.37 6.75
      vertex 33.07 30.77 7.25
      vertex 33.07 36.37 7.25
    endloop
  endfacet
  facet normal 0 1 -0
    outer loop
      vertex 33.07 30.77 6.75
      vertex 31.47 30.77 7.25
      vertex 33.07 30.77 7.25
    endloop
  endfacet
  facet normal 0 1 0
    outer loop
      vertex 31.47 30.77 7.25
      vertex 33.07 30.77 6.75
      vertex 31.47 30.77 6.75
    endloop
  endfacet
  facet normal 0 1 -0
    outer loop
      vertex 33.07 30.77 -0.25
      vertex 31.47 30.77 0.25
      vertex 33.07 30.77 0.25
    endloop
  endfacet
  facet normal 0 1 0
    outer loop
      vertex 31.47 30.77 0.25
      vertex 33.07 30.77 -0.25
      vertex 31.47 30.77 -0.25
    endloop
  endfacet
  facet normal 1 -0 0
    outer loop
      vertex 29.27 17.37 6.75
      vertex 29.27 31.37 0.25
      vertex 29.27 31.37 6.75
    endloop
  endfacet
  facet normal 1 0 0
    outer loop
      vertex 29.27 31.37 0.25
      vertex 29.27 17.37 6.75
      vertex 29.27 17.37 0.25
    endloop
  endfacet
  facet normal 0 0 -1
    outer loop
      vertex 35.27 17.37 6.75
      vertex 33.07 30.77 6.75
      vertex 35.27 31.37 6.75
    endloop
  endfacet
  facet normal 0 0 -1
    outer loop
      vertex 35.27 17.37 6.75
      vertex 31.47 30.77 6.75
      vertex 33.07 30.77 6.75
    endloop
  endfacet
  facet normal 0 0 -1
    outer loop
      vertex 29.27 17.37 6.75
      vertex 31.47 30.77 6.75
      vertex 35.27 17.37 6.75
    endloop
  endfacet
  facet normal 0 0 -1
    outer loop
      vertex 29.27 31.37 6.75
      vertex 31.47 30.77 6.75
      vertex 29.27 17.37 6.75
    endloop
  endfacet
  facet normal 0 0 -1
    outer loop
      vertex 31.47 30.77 6.75
      vertex 29.27 31.37 6.75
      vertex 31.47 31.37 6.75
    endloop
  endfacet
  facet normal -0 0 -1
    outer loop
      vertex 35.27 31.37 6.75
      vertex 33.07 30.77 6.75
      vertex 33.07 31.37 6.75
    endloop
  endfacet
  facet normal -1 0 0
    outer loop
      vertex 35.27 17.37 0.25
      vertex 35.27 31.37 6.75
      vertex 35.27 31.37 0.25
    endloop
  endfacet
  facet normal -1 -0 0
    outer loop
      vertex 35.27 31.37 6.75
      vertex 35.27 17.37 0.25
      vertex 35.27 17.37 6.75
    endloop
  endfacet
  facet normal 0 0 1
    outer loop
      vertex 31.47 31.37 0.25
      vertex 29.27 31.37 0.25
      vertex 31.47 30.77 0.25
    endloop
  endfacet
  facet normal 0 0 1
    outer loop
      vertex 33.07 30.77 0.25
      vertex 35.27 31.37 0.25
      vertex 33.07 31.37 0.25
    endloop
  endfacet
  facet normal 0 0 1
    outer loop
      vertex 35.27 31.37 0.25
      vertex 33.07 30.77 0.25
      vertex 35.27 17.37 0.25
    endloop
  endfacet
  facet normal -0 0 1
    outer loop
      vertex 31.47 30.77 0.25
      vertex 35.27 17.37 0.25
      vertex 33.07 30.77 0.25
    endloop
  endfacet
  facet normal 0 0 1
    outer loop
      vertex 29.27 17.37 0.25
      vertex 31.47 30.77 0.25
      vertex 29.27 31.37 0.25
    endloop
  endfacet
  facet normal 0 0 1
    outer loop
      vertex 31.47 30.77 0.25
      vertex 29.27 17.37 0.25
      vertex 35.27 17.37 0.25
    endloop
  endfacet
  facet normal 0 1 0
    outer loop
      vertex 35.27 17.37 6.75
      vertex 34.27 17.37 6.25
      vertex 29.27 17.37 6.75
    endloop
  endfacet
  facet normal 0 1 0
    outer loop
      vertex 35.27 17.37 6.75
      vertex 34.27 17.37 0.75
      vertex 34.27 17.37 6.25
    endloop
  endfacet
  facet normal 0 1 0
    outer loop
      vertex 34.27 17.37 0.75
      vertex 35.27 17.37 0.25
      vertex 30.27 17.37 0.75
    endloop
  endfacet
  facet normal 0 1 -0
    outer loop
      vertex 35.27 17.37 0.25
      vertex 34.27 17.37 0.75
      vertex 35.27 17.37 6.75
    endloop
  endfacet
  facet normal 0 1 -0
    outer loop
      vertex 30.27 17.37 6.25
      vertex 29.27 17.37 6.75
      vertex 34.27 17.37 6.25
    endloop
  endfacet
  facet normal 0 1 -0
    outer loop
      vertex 30.27 17.37 0.75
      vertex 29.27 17.37 6.75
      vertex 30.27 17.37 6.25
    endloop
  endfacet
  facet normal 0 1 0
    outer loop
      vertex 30.27 17.37 0.75
      vertex 29.27 17.37 0.25
      vertex 29.27 17.37 6.75
    endloop
  endfacet
  facet normal 0 1 0
    outer loop
      vertex 29.27 17.37 0.25
      vertex 30.27 17.37 0.75
      vertex 35.27 17.37 0.25
    endloop
  endfacet
  facet normal 0 -1 0
    outer loop
      vertex 33.07 31.37 0.25
      vertex 35.27 31.37 6.75
      vertex 33.07 31.37 6.75
    endloop
  endfacet
  facet normal 0 -1 -0
    outer loop
      vertex 35.27 31.37 6.75
      vertex 33.07 31.37 0.25
      vertex 35.27 31.37 0.25
    endloop
  endfacet
  facet normal 0 -1 0
    outer loop
      vertex 29.27 31.37 0.25
      vertex 31.47 31.37 6.75
      vertex 29.27 31.37 6.75
    endloop
  endfacet
  facet normal 0 -1 -0
    outer loop
      vertex 31.47 31.37 6.75
      vertex 29.27 31.37 0.25
      vertex 31.47 31.37 0.25
    endloop
  endfacet
  facet normal 1 -0 0
    outer loop
      vertex 30.27 16.37 6.25
      vertex 30.27 17.37 0.75
      vertex 30.27 17.37 6.25
    endloop
  endfacet
  facet normal 1 0 0
    outer loop
      vertex 30.27 17.37 0.75
      vertex 30.27 16.37 6.25
      vertex 30.27 16.37 0.75
    endloop
  endfacet
  facet normal 0 0 -1
    outer loop
      vertex 30.27 16.37 6.25
      vertex 34.27 17.37 6.25
      vertex 34.27 16.37 6.25
    endloop
  endfacet
  facet normal -0 0 -1
    outer loop
      vertex 34.27 17.37 6.25
      vertex 30.27 16.37 6.25
      vertex 30.27 17.37 6.25
    endloop
  endfacet
  facet normal -1 0 0
    outer loop
      vertex 34.27 16.37 0.75
      vertex 34.27 17.37 6.25
      vertex 34.27 17.37 0.75
    endloop
  endfacet
  facet normal -1 -0 0
    outer loop
      vertex 34.27 17.37 6.25
      vertex 34.27 16.37 0.75
      vertex 34.27 16.37 6.25
    endloop
  endfacet
  facet normal -0 0 1
    outer loop
      vertex 30.27 17.37 0.75
      vertex 34.27 16.37 0.75
      vertex 34.27 17.37 0.75
    endloop
  endfacet
  facet normal 0 0 1
    outer loop
      vertex 34.27 16.37 0.75
      vertex 30.27 17.37 0.75
      vertex 30.27 16.37 0.75
    endloop
  endfacet
endsolid OpenSCAD_Model
