solid OpenSCAD_Model
  facet normal -1 0 0
    outer loop
      vertex -6.3 -49.37 0.69
      vertex -6.3 -29.37 8.19
      vertex -6.3 -29.37 0.69
    endloop
  endfacet
  facet normal -1 -0 0
    outer loop
      vertex -6.3 -29.37 8.19
      vertex -6.3 -49.37 0.69
      vertex -6.3 -49.37 8.19
    endloop
  endfacet
  facet normal 0 0 -1
    outer loop
      vertex -0.800001 -49.37 0.69
      vertex -6.3 -49.37 0.69
      vertex -0.800001 -43.77 0.69
    endloop
  endfacet
  facet normal 0 0 -1
    outer loop
      vertex 0.8 -43.77 0.69
      vertex 6.3 -49.37 0.69
      vertex 0.8 -49.37 0.69
    endloop
  endfacet
  facet normal 0 0 -1
    outer loop
      vertex 6.3 -49.37 0.69
      vertex 0.8 -43.77 0.69
      vertex 6.3 -29.37 0.69
    endloop
  endfacet
  facet normal 0 0 -1
    outer loop
      vertex -0.800001 -43.77 0.69
      vertex 6.3 -29.37 0.69
      vertex 0.8 -43.77 0.69
    endloop
  endfacet
  facet normal 0 0 -1
    outer loop
      vertex -6.3 -29.37 0.69
      vertex -0.800001 -43.77 0.69
      vertex -6.3 -49.37 0.69
    endloop
  endfacet
  facet normal 0 0 -1
    outer loop
      vertex -0.800001 -43.77 0.69
      vertex -6.3 -29.37 0.69
      vertex 6.3 -29.37 0.69
    endloop
  endfacet
  facet normal 1 -0 0
    outer loop
      vertex 6.3 -49.37 8.19
      vertex 6.3 -29.37 0.69
      vertex 6.3 -29.37 8.19
    endloop
  endfacet
  facet normal 1 0 0
    outer loop
      vertex 6.3 -29.37 0.69
      vertex 6.3 -49.37 8.19
      vertex 6.3 -49.37 0.69
    endloop
  endfacet
  facet normal 0 -1 0
    outer loop
      vertex 0.8 -49.37 0.69
      vertex 6.3 -49.37 8.19
      vertex 0.8 -49.37 8.19
    endloop
  endfacet
  facet normal 0 -1 -0
    outer loop
      vertex 6.3 -49.37 8.19
      vertex 0.8 -49.37 0.69
      vertex 6.3 -49.37 0.69
    endloop
  endfacet
  facet normal 0 -1 0
    outer loop
      vertex -6.3 -49.37 0.69
      vertex -0.800001 -49.37 8.19
      vertex -6.3 -49.37 8.19
    endloop
  endfacet
  facet normal 0 -1 -0
    outer loop
      vertex -0.800001 -49.37 8.19
      vertex -6.3 -49.37 0.69
      vertex -0.800001 -49.37 0.69
    endloop
  endfacet
  facet normal 0 0 1
    outer loop
      vertex 6.3 -29.37 8.19
      vertex 0.8 -43.77 8.19
      vertex 6.3 -49.37 8.19
    endloop
  endfacet
  facet normal 0 0 1
    outer loop
      vertex 6.3 -29.37 8.19
      vertex -0.800001 -43.77 8.19
      vertex 0.8 -43.77 8.19
    endloop
  endfacet
  facet normal -0 0 1
    outer loop
      vertex -6.3 -29.37 8.19
      vertex -0.800001 -43.77 8.19
      vertex 6.3 -29.37 8.19
    endloop
  endfacet
  facet normal 0 0 1
    outer loop
      vertex -6.3 -49.37 8.19
      vertex -0.800001 -43.77 8.19
      vertex -6.3 -29.37 8.19
    endloop
  endfacet
  facet normal 0 0 1
    outer loop
      vertex -0.800001 -43.77 8.19
      vertex -6.3 -49.37 8.19
      vertex -0.800001 -49.37 8.19
    endloop
  endfacet
  facet normal 0 0 1
    outer loop
      vertex 6.3 -49.37 8.19
      vertex 0.8 -43.77 8.19
      vertex 0.8 -49.37 8.19
    endloop
  endfacet
  facet normal 0 1 0
    outer loop
      vertex 6.3 -29.37 8.19
      vertex 2 -29.37 7.19
      vertex -6.3 -29.37 8.19
    endloop
  endfacet
  facet normal 0 1 0
    outer loop
      vertex 6.3 -29.37 8.19
      vertex 2 -29.37 1.69
      vertex 2 -29.37 7.19
    endloop
  endfacet
  facet normal 0 1 0
    outer loop
      vertex 2 -29.37 1.69
      vertex 6.3 -29.37 0.69
      vertex -2 -29.37 1.69
    endloop
  endfacet
  facet normal 0 1 -0
    outer loop
      vertex 6.3 -29.37 0.69
      vertex 2 -29.37 1.69
      vertex 6.3 -29.37 8.19
    endloop
  endfacet
  facet normal 0 1 -0
    outer loop
      vertex -2 -29.37 7.19
      vertex -6.3 -29.37 8.19
      vertex 2 -29.37 7.19
    endloop
  endfacet
  facet normal 0 1 -0
    outer loop
      vertex -2 -29.37 1.69
      vertex -6.3 -29.37 8.19
      vertex -2 -29.37 7.19
    endloop
  endfacet
  facet normal 0 1 0
    outer loop
      vertex -2 -29.37 1.69
      vertex -6.3 -29.37 0.69
      vertex -6.3 -29.37 8.19
    endloop
  endfacet
  facet normal 0 1 0
    outer loop
      vertex -6.3 -29.37 0.69
      vertex -2 -29.37 1.69
      vertex 6.3 -29.37 0.69
    endloop
  endfacet
  facet normal 1 0 0
    outer loop
      vertex -0.800001 -43.77 8.19
      vertex -0.800001 -44.37 7.69
      vertex -0.800001 -43.77 7.69
    endloop
  endfacet
  facet normal 1 0 0
    outer loop
      vertex -0.800001 -44.37 7.69
      vertex -0.800001 -49.37 8.19
      vertex -0.800001 -44.37 1.19
    endloop
  endfacet
  facet normal 1 -0 0
    outer loop
      vertex -0.800001 -49.37 8.19
      vertex -0.800001 -44.37 7.69
      vertex -0.800001 -43.77 8.19
    endloop
  endfacet
  facet normal 1 -0 0
    outer loop
      vertex -0.800001 -44.37 1.19
      vertex -0.800001 -43.77 0.69
      vertex -0.800001 -43.77 1.19
    endloop
  endfacet
  facet normal 1 0 0
    outer loop
      vertex -0.800001 -44.37 1.19
      vertex -0.800001 -49.37 0.69
      vertex -0.800001 -43.77 0.69
    endloop
  endfacet
  facet normal 1 0 0
    outer loop
      vertex -0.800001 -49.37 0.69
      vertex -0.800001 -44.37 1.19
      vertex -0.800001 -49.37 8.19
    endloop
  endfacet
  facet normal -1 0 0
    outer loop
      vertex 0.8 -43.77 0.69
      vertex 0.8 -44.37 1.19
      vertex 0.8 -43.77 1.19
    endloop
  endfacet
  facet normal -1 -0 0
    outer loop
      vertex 0.8 -44.37 1.19
      vertex 0.8 -49.37 0.69
      vertex 0.8 -44.37 7.69
    endloop
  endfacet
  facet normal -1 0 0
    outer loop
      vertex 0.8 -49.37 0.69
      vertex 0.8 -44.37 1.19
      vertex 0.8 -43.77 0.69
    endloop
  endfacet
  facet normal -1 0 0
    outer loop
      vertex 0.8 -44.37 7.69
      vertex 0.8 -43.77 8.19
      vertex 0.8 -43.77 7.69
    endloop
  endfacet
  facet normal -1 0 0
    outer loop
      vertex 0.8 -44.37 7.69
      vertex 0.8 -49.37 8.19
      vertex 0.8 -43.77 8.19
    endloop
  endfacet
  facet normal -1 0 0
    outer loop
      vertex 0.8 -49.37 8.19
      vertex 0.8 -44.37 7.69
      vertex 0.8 -49.37 0.69
    endloop
  endfacet
  facet normal 0 -1 0
    outer loop
      vertex -0.800001 -43.77 0.69
      vertex 0.8 -43.77 1.19
      vertex -0.800001 -43.77 1.19
    endloop
  endfacet
  facet normal 0 -1 -0
    outer loop
      vertex 0.8 -43.77 1.19
      vertex -0.800001 -43.77 0.69
      vertex 0.8 -43.77 0.69
    endloop
  endfacet
  facet normal 0 -1 0
    outer loop
      vertex -0.800001 -43.77 7.69
      vertex 0.8 -43.77 8.19
      vertex -0.800001 -43.77 8.19
    endloop
  endfacet
  facet normal 0 -1 -0
    outer loop
      vertex 0.8 -43.77 8.19
      vertex -0.800001 -43.77 7.69
      vertex 0.8 -43.77 7.69
    endloop
  endfacet
  facet normal 1 -0 0
    outer loop
      vertex -3 -44.37 7.69
      vertex -3 -30.37 1.19
      vertex -3 -30.37 7.69
    endloop
  endfacet
  facet normal 1 0 0
    outer loop
      vertex -3 -30.37 1.19
      vertex -3 -44.37 7.69
      vertex -3 -44.37 1.19
    endloop
  endfacet
  facet normal 0 0 1
    outer loop
      vertex 3 -30.37 1.19
      vertex 0.8 -43.77 1.19
      vertex 3 -44.37 1.19
    endloop
  endfacet
  facet normal 0 0 1
    outer loop
      vertex 3 -30.37 1.19
      vertex -0.800001 -43.77 1.19
      vertex 0.8 -43.77 1.19
    endloop
  endfacet
  facet normal -0 0 1
    outer loop
      vertex -3 -30.37 1.19
      vertex -0.800001 -43.77 1.19
      vertex 3 -30.37 1.19
    endloop
  endfacet
  facet normal 0 0 1
    outer loop
      vertex -3 -44.37 1.19
      vertex -0.800001 -43.77 1.19
      vertex -3 -30.37 1.19
    endloop
  endfacet
  facet normal 0 0 1
    outer loop
      vertex -0.800001 -43.77 1.19
      vertex -3 -44.37 1.19
      vertex -0.800001 -44.37 1.19
    endloop
  endfacet
  facet normal 0 0 1
    outer loop
      vertex 3 -44.37 1.19
      vertex 0.8 -43.77 1.19
      vertex 0.8 -44.37 1.19
    endloop
  endfacet
  facet normal -1 0 0
    outer loop
      vertex 3 -44.37 1.19
      vertex 3 -30.37 7.69
      vertex 3 -30.37 1.19
    endloop
  endfacet
  facet normal -1 -0 0
    outer loop
      vertex 3 -30.37 7.69
      vertex 3 -44.37 1.19
      vertex 3 -44.37 7.69
    endloop
  endfacet
  facet normal 0 0 -1
    outer loop
      vertex -0.800001 -44.37 7.69
      vertex -3 -44.37 7.69
      vertex -0.800001 -43.77 7.69
    endloop
  endfacet
  facet normal 0 0 -1
    outer loop
      vertex 0.8 -43.77 7.69
      vertex 3 -44.37 7.69
      vertex 0.8 -44.37 7.69
    endloop
  endfacet
  facet normal 0 0 -1
    outer loop
      vertex 3 -44.37 7.69
      vertex 0.8 -43.77 7.69
      vertex 3 -30.37 7.69
    endloop
  endfacet
  facet normal 0 0 -1
    outer loop
      vertex -0.800001 -43.77 7.69
      vertex 3 -30.37 7.69
      vertex 0.8 -43.77 7.69
    endloop
  endfacet
  facet normal 0 0 -1
    outer loop
      vertex -3 -30.37 7.69
      vertex -0.800001 -43.77 7.69
      vertex -3 -44.37 7.69
    endloop
  endfacet
  facet normal 0 0 -1
    outer loop
      vertex -0.800001 -43.77 7.69
      vertex -3 -30.37 7.69
      vertex 3 -30.37 7.69
    endloop
  endfacet
  facet normal 0 -1 0
    outer loop
      vertex -3 -30.37 7.69
      vertex -2 -30.37 7.19
      vertex 3 -30.37 7.69
    endloop
  endfacet
  facet normal 0 -1 0
    outer loop
      vertex -3 -30.37 7.69
      vertex -2 -30.37 1.69
      vertex -2 -30.37 7.19
    endloop
  endfacet
  facet normal 0 -1 -0
    outer loop
      vertex -2 -30.37 1.69
      vertex -3 -30.37 1.19
      vertex 2 -30.37 1.69
    endloop
  endfacet
  facet normal 0 -1 0
    outer loop
      vertex -3 -30.37 1.19
      vertex -2 -30.37 1.69
      vertex -3 -30.37 7.69
    endloop
  endfacet
  facet normal 0 -1 0
    outer loop
      vertex 2 -30.37 7.19
      vertex 3 -30.37 7.69
      vertex -2 -30.37 7.19
    endloop
  endfacet
  facet normal 0 -1 0
    outer loop
      vertex 2 -30.37 1.69
      vertex 3 -30.37 7.69
      vertex 2 -30.37 7.19
    endloop
  endfacet
  facet normal 0 -1 0
    outer loop
      vertex 2 -30.37 1.69
      vertex 3 -30.37 1.19
      vertex 3 -30.37 7.69
    endloop
  endfacet
  facet normal 0 -1 0
    outer loop
      vertex 3 -30.37 1.19
      vertex 2 -30.37 1.69
      vertex -3 -30.37 1.19
    endloop
  endfacet
  facet normal 0 1 -0
    outer loop
      vertex 3 -44.37 1.19
      vertex 0.8 -44.37 7.69
      vertex 3 -44.37 7.69
    endloop
  endfacet
  facet normal 0 1 0
    outer loop
      vertex 0.8 -44.37 7.69
      vertex 3 -44.37 1.19
      vertex 0.8 -44.37 1.19
    endloop
  endfacet
  facet normal 0 1 -0
    outer loop
      vertex -0.800001 -44.37 1.19
      vertex -3 -44.37 7.69
      vertex -0.800001 -44.37 7.69
    endloop
  endfacet
  facet normal 0 1 0
    outer loop
      vertex -3 -44.37 7.69
      vertex -0.800001 -44.37 1.19
      vertex -3 -44.37 1.19
    endloop
  endfacet
  facet normal 1 -0 0
    outer loop
      vertex -2 -30.37 7.19
      vertex -2 -29.37 1.69
      vertex -2 -29.37 7.19
    endloop
  endfacet
  facet normal 1 0 0
    outer loop
      vertex -2 -29.37 1.69
      vertex -2 -30.37 7.19
      vertex -2 -30.37 1.69
    endloop
  endfacet
  facet normal -0 0 1
    outer loop
      vertex -2 -29.37 1.69
      vertex 2 -30.37 1.69
      vertex 2 -29.37 1.69
    endloop
  endfacet
  facet normal 0 0 1
    outer loop
      vertex 2 -30.37 1.69
      vertex -2 -29.37 1.69
      vertex -2 -30.37 1.69
    endloop
  endfacet
  facet normal -1 0 0
    outer loop
      vertex 2 -30.37 1.69
      vertex 2 -29.37 7.19
      vertex 2 -29.37 1.69
    endloop
  endfacet
  facet normal -1 -0 0
    outer loop
      vertex 2 -29.37 7.19
      vertex 2 -30.37 1.69
      vertex 2 -30.37 7.19
    endloop
  endfacet
  facet normal 0 0 -1
    outer loop
      vertex -2 -30.37 7.19
      vertex 2 -29.37 7.19
      vertex 2 -30.37 7.19
    endloop
  endfacet
  facet normal -0 0 -1
    outer loop
      vertex 2 -29.37 7.19
      vertex -2 -30.37 7.19
      vertex -2 -29.37 7.19
    endloop
  endfacet
endsolid OpenSCAD_Model
