solid OpenSCAD_Model
  facet normal -1 0 0
    outer loop
      vertex 25.97 -36.37 0.69
      vertex 25.97 -16.37 8.19
      vertex 25.97 -16.37 0.69
    endloop
  endfacet
  facet normal -1 -0 0
    outer loop
      vertex 25.97 -16.37 8.19
      vertex 25.97 -36.37 0.69
      vertex 25.97 -36.37 8.19
    endloop
  endfacet
  facet normal 0 0 -1
    outer loop
      vertex 31.47 -36.37 0.69
      vertex 25.97 -36.37 0.69
      vertex 31.47 -30.77 0.69
    endloop
  endfacet
  facet normal 0 0 -1
    outer loop
      vertex 33.07 -30.77 0.69
      vertex 38.57 -36.37 0.69
      vertex 33.07 -36.37 0.69
    endloop
  endfacet
  facet normal 0 0 -1
    outer loop
      vertex 38.57 -36.37 0.69
      vertex 33.07 -30.77 0.69
      vertex 38.57 -16.37 0.69
    endloop
  endfacet
  facet normal 0 0 -1
    outer loop
      vertex 31.47 -30.77 0.69
      vertex 38.57 -16.37 0.69
      vertex 33.07 -30.77 0.69
    endloop
  endfacet
  facet normal 0 0 -1
    outer loop
      vertex 25.97 -16.37 0.69
      vertex 31.47 -30.77 0.69
      vertex 25.97 -36.37 0.69
    endloop
  endfacet
  facet normal 0 0 -1
    outer loop
      vertex 31.47 -30.77 0.69
      vertex 25.97 -16.37 0.69
      vertex 38.57 -16.37 0.69
    endloop
  endfacet
  facet normal 1 -0 0
    outer loop
      vertex 38.57 -36.37 8.19
      vertex 38.57 -16.37 0.69
      vertex 38.57 -16.37 8.19
    endloop
  endfacet
  facet normal 1 0 0
    outer loop
      vertex 38.57 -16.37 0.69
      vertex 38.57 -36.37 8.19
      vertex 38.57 -36.37 0.69
    endloop
  endfacet
  facet normal 0 0 1
    outer loop
      vertex 38.57 -16.37 8.19
      vertex 33.07 -30.77 8.19
      vertex 38.57 -36.37 8.19
    endloop
  endfacet
  facet normal 0 0 1
    outer loop
      vertex 38.57 -16.37 8.19
      vertex 31.47 -30.77 8.19
      vertex 33.07 -30.77 8.19
    endloop
  endfacet
  facet normal -0 0 1
    outer loop
      vertex 25.97 -16.37 8.19
      vertex 31.47 -30.77 8.19
      vertex 38.57 -16.37 8.19
    endloop
  endfacet
  facet normal 0 0 1
    outer loop
      vertex 25.97 -36.37 8.19
      vertex 31.47 -30.77 8.19
      vertex 25.97 -16.37 8.19
    endloop
  endfacet
  facet normal 0 0 1
    outer loop
      vertex 31.47 -30.77 8.19
      vertex 25.97 -36.37 8.19
      vertex 31.47 -36.37 8.19
    endloop
  endfacet
  facet normal 0 0 1
    outer loop
      vertex 38.57 -36.37 8.19
      vertex 33.07 -30.77 8.19
      vertex 33.07 -36.37 8.19
    endloop
  endfacet
  facet normal 0 1 0
    outer loop
      vertex 38.57 -16.37 8.19
      vertex 34.27 -16.37 7.19
      vertex 25.97 -16.37 8.19
    endloop
  endfacet
  facet normal 0 1 0
    outer loop
      vertex 38.57 -16.37 8.19
      vertex 34.27 -16.37 1.69
      vertex 34.27 -16.37 7.19
    endloop
  endfacet
  facet normal 0 1 0
    outer loop
      vertex 34.27 -16.37 1.69
      vertex 38.57 -16.37 0.69
      vertex 30.27 -16.37 1.69
    endloop
  endfacet
  facet normal 0 1 -0
    outer loop
      vertex 38.57 -16.37 0.69
      vertex 34.27 -16.37 1.69
      vertex 38.57 -16.37 8.19
    endloop
  endfacet
  facet normal 0 1 -0
    outer loop
      vertex 30.27 -16.37 7.19
      vertex 25.97 -16.37 8.19
      vertex 34.27 -16.37 7.19
    endloop
  endfacet
  facet normal 0 1 -0
    outer loop
      vertex 30.27 -16.37 1.69
      vertex 25.97 -16.37 8.19
      vertex 30.27 -16.37 7.19
    endloop
  endfacet
  facet normal 0 1 0
    outer loop
      vertex 30.27 -16.37 1.69
      vertex 25.97 -16.37 0.69
      vertex 25.97 -16.37 8.19
    endloop
  endfacet
  facet normal 0 1 0
    outer loop
      vertex 25.97 -16.37 0.69
      vertex 30.27 -16.37 1.69
      vertex 38.57 -16.37 0.69
    endloop
  endfacet
  facet normal 0 -1 0
    outer loop
      vertex 33.07 -36.37 0.69
      vertex 38.57 -36.37 8.19
      vertex 33.07 -36.37 8.19
    endloop
  endfacet
  facet normal 0 -1 -0
    outer loop
      vertex 38.57 -36.37 8.19
      vertex 33.07 -36.37 0.69
      vertex 38.57 -36.37 0.69
    endloop
  endfacet
  facet normal 0 -1 0
    outer loop
      vertex 25.97 -36.37 0.69
      vertex 31.47 -36.37 8.19
      vertex 25.97 -36.37 8.19
    endloop
  endfacet
  facet normal 0 -1 -0
    outer loop
      vertex 31.47 -36.37 8.19
      vertex 25.97 -36.37 0.69
      vertex 31.47 -36.37 0.69
    endloop
  endfacet
  facet normal 1 0 0
    outer loop
      vertex 31.47 -30.77 8.19
      vertex 31.47 -31.37 7.69
      vertex 31.47 -30.77 7.69
    endloop
  endfacet
  facet normal 1 0 0
    outer loop
      vertex 31.47 -31.37 7.69
      vertex 31.47 -36.37 8.19
      vertex 31.47 -31.37 1.19
    endloop
  endfacet
  facet normal 1 -0 0
    outer loop
      vertex 31.47 -36.37 8.19
      vertex 31.47 -31.37 7.69
      vertex 31.47 -30.77 8.19
    endloop
  endfacet
  facet normal 1 -0 0
    outer loop
      vertex 31.47 -31.37 1.19
      vertex 31.47 -30.77 0.69
      vertex 31.47 -30.77 1.19
    endloop
  endfacet
  facet normal 1 0 0
    outer loop
      vertex 31.47 -31.37 1.19
      vertex 31.47 -36.37 0.69
      vertex 31.47 -30.77 0.69
    endloop
  endfacet
  facet normal 1 0 0
    outer loop
      vertex 31.47 -36.37 0.69
      vertex 31.47 -31.37 1.19
      vertex 31.47 -36.37 8.19
    endloop
  endfacet
  facet normal -1 0 0
    outer loop
      vertex 33.07 -30.77 0.69
      vertex 33.07 -31.37 1.19
      vertex 33.07 -30.77 1.19
    endloop
  endfacet
  facet normal -1 -0 0
    outer loop
      vertex 33.07 -31.37 1.19
      vertex 33.07 -36.37 0.69
      vertex 33.07 -31.37 7.69
    endloop
  endfacet
  facet normal -1 0 0
    outer loop
      vertex 33.07 -36.37 0.69
      vertex 33.07 -31.37 1.19
      vertex 33.07 -30.77 0.69
    endloop
  endfacet
  facet normal -1 0 0
    outer loop
      vertex 33.07 -31.37 7.69
      vertex 33.07 -30.77 8.19
      vertex 33.07 -30.77 7.69
    endloop
  endfacet
  facet normal -1 0 0
    outer loop
      vertex 33.07 -31.37 7.69
      vertex 33.07 -36.37 8.19
      vertex 33.07 -30.77 8.19
    endloop
  endfacet
  facet normal -1 0 0
    outer loop
      vertex 33.07 -36.37 8.19
      vertex 33.07 -31.37 7.69
      vertex 33.07 -36.37 0.69
    endloop
  endfacet
  facet normal 0 -1 0
    outer loop
      vertex 31.47 -30.77 0.69
      vertex 33.07 -30.77 1.19
      vertex 31.47 -30.77 1.19
    endloop
  endfacet
  facet normal 0 -1 -0
    outer loop
      vertex 33.07 -30.77 1.19
      vertex 31.47 -30.77 0.69
      vertex 33.07 -30.77 0.69
    endloop
  endfacet
  facet normal 0 -1 0
    outer loop
      vertex 31.47 -30.77 7.69
      vertex 33.07 -30.77 8.19
      vertex 31.47 -30.77 8.19
    endloop
  endfacet
  facet normal 0 -1 -0
    outer loop
      vertex 33.07 -30.77 8.19
      vertex 31.47 -30.77 7.69
      vertex 33.07 -30.77 7.69
    endloop
  endfacet
  facet normal 1 -0 0
    outer loop
      vertex 29.27 -31.37 7.69
      vertex 29.27 -17.37 1.19
      vertex 29.27 -17.37 7.69
    endloop
  endfacet
  facet normal 1 0 0
    outer loop
      vertex 29.27 -17.37 1.19
      vertex 29.27 -31.37 7.69
      vertex 29.27 -31.37 1.19
    endloop
  endfacet
  facet normal 0 0 1
    outer loop
      vertex 35.27 -17.37 1.19
      vertex 33.07 -30.77 1.19
      vertex 35.27 -31.37 1.19
    endloop
  endfacet
  facet normal 0 0 1
    outer loop
      vertex 35.27 -17.37 1.19
      vertex 31.47 -30.77 1.19
      vertex 33.07 -30.77 1.19
    endloop
  endfacet
  facet normal -0 0 1
    outer loop
      vertex 29.27 -17.37 1.19
      vertex 31.47 -30.77 1.19
      vertex 35.27 -17.37 1.19
    endloop
  endfacet
  facet normal 0 0 1
    outer loop
      vertex 29.27 -31.37 1.19
      vertex 31.47 -30.77 1.19
      vertex 29.27 -17.37 1.19
    endloop
  endfacet
  facet normal 0 0 1
    outer loop
      vertex 31.47 -30.77 1.19
      vertex 29.27 -31.37 1.19
      vertex 31.47 -31.37 1.19
    endloop
  endfacet
  facet normal 0 0 1
    outer loop
      vertex 35.27 -31.37 1.19
      vertex 33.07 -30.77 1.19
      vertex 33.07 -31.37 1.19
    endloop
  endfacet
  facet normal -1 0 0
    outer loop
      vertex 35.27 -31.37 1.19
      vertex 35.27 -17.37 7.69
      vertex 35.27 -17.37 1.19
    endloop
  endfacet
  facet normal -1 -0 0
    outer loop
      vertex 35.27 -17.37 7.69
      vertex 35.27 -31.37 1.19
      vertex 35.27 -31.37 7.69
    endloop
  endfacet
  facet normal 0 0 -1
    outer loop
      vertex 31.47 -31.37 7.69
      vertex 29.27 -31.37 7.69
      vertex 31.47 -30.77 7.69
    endloop
  endfacet
  facet normal 0 0 -1
    outer loop
      vertex 33.07 -30.77 7.69
      vertex 35.27 -31.37 7.69
      vertex 33.07 -31.37 7.69
    endloop
  endfacet
  facet normal 0 0 -1
    outer loop
      vertex 35.27 -31.37 7.69
      vertex 33.07 -30.77 7.69
      vertex 35.27 -17.37 7.69
    endloop
  endfacet
  facet normal 0 0 -1
    outer loop
      vertex 31.47 -30.77 7.69
      vertex 35.27 -17.37 7.69
      vertex 33.07 -30.77 7.69
    endloop
  endfacet
  facet normal 0 0 -1
    outer loop
      vertex 29.27 -17.37 7.69
      vertex 31.47 -30.77 7.69
      vertex 29.27 -31.37 7.69
    endloop
  endfacet
  facet normal 0 0 -1
    outer loop
      vertex 31.47 -30.77 7.69
      vertex 29.27 -17.37 7.69
      vertex 35.27 -17.37 7.69
    endloop
  endfacet
  facet normal 0 -1 0
    outer loop
      vertex 29.27 -17.37 7.69
      vertex 30.27 -17.37 7.19
      vertex 35.27 -17.37 7.69
    endloop
  endfacet
  facet normal 0 -1 0
    outer loop
      vertex 29.27 -17.37 7.69
      vertex 30.27 -17.37 1.69
      vertex 30.27 -17.37 7.19
    endloop
  endfacet
  facet normal 0 -1 -0
    outer loop
      vertex 30.27 -17.37 1.69
      vertex 29.27 -17.37 1.19
      vertex 34.27 -17.37 1.69
    endloop
  endfacet
  facet normal 0 -1 0
    outer loop
      vertex 29.27 -17.37 1.19
      vertex 30.27 -17.37 1.69
      vertex 29.27 -17.37 7.69
    endloop
  endfacet
  facet normal 0 -1 0
    outer loop
      vertex 34.27 -17.37 7.19
      vertex 35.27 -17.37 7.69
      vertex 30.27 -17.37 7.19
    endloop
  endfacet
  facet normal 0 -1 0
    outer loop
      vertex 34.27 -17.37 1.69
      vertex 35.27 -17.37 7.69
      vertex 34.27 -17.37 7.19
    endloop
  endfacet
  facet normal 0 -1 0
    outer loop
      vertex 34.27 -17.37 1.69
      vertex 35.27 -17.37 1.19
      vertex 35.27 -17.37 7.69
    endloop
  endfacet
  facet normal 0 -1 0
    outer loop
      vertex 35.27 -17.37 1.19
      vertex 34.27 -17.37 1.69
      vertex 29.27 -17.37 1.19
    endloop
  endfacet
  facet normal 0 1 -0
    outer loop
      vertex 35.27 -31.37 1.19
      vertex 33.07 -31.37 7.69
      vertex 35.27 -31.37 7.69
    endloop
  endfacet
  facet normal 0 1 0
    outer loop
      vertex 33.07 -31.37 7.69
      vertex 35.27 -31.37 1.19
      vertex 33.07 -31.37 1.19
    endloop
  endfacet
  facet normal 0 1 -0
    outer loop
      vertex 31.47 -31.37 1.19
      vertex 29.27 -31.37 7.69
      vertex 31.47 -31.37 7.69
    endloop
  endfacet
  facet normal 0 1 0
    outer loop
      vertex 29.27 -31.37 7.69
      vertex 31.47 -31.37 1.19
      vertex 29.27 -31.37 1.19
    endloop
  endfacet
  facet normal 1 -0 0
    outer loop
      vertex 30.27 -17.37 7.19
      vertex 30.27 -16.37 1.69
      vertex 30.27 -16.37 7.19
    endloop
  endfacet
  facet normal 1 0 0
    outer loop
      vertex 30.27 -16.37 1.69
      vertex 30.27 -17.37 7.19
      vertex 30.27 -17.37 1.69
    endloop
  endfacet
  facet normal -0 0 1
    outer loop
      vertex 30.27 -16.37 1.69
      vertex 34.27 -17.37 1.69
      vertex 34.27 -16.37 1.69
    endloop
  endfacet
  facet normal 0 0 1
    outer loop
      vertex 34.27 -17.37 1.69
      vertex 30.27 -16.37 1.69
      vertex 30.27 -17.37 1.69
    endloop
  endfacet
  facet normal -1 0 0
    outer loop
      vertex 34.27 -17.37 1.69
      vertex 34.27 -16.37 7.19
      vertex 34.27 -16.37 1.69
    endloop
  endfacet
  facet normal -1 -0 0
    outer loop
      vertex 34.27 -16.37 7.19
      vertex 34.27 -17.37 1.69
      vertex 34.27 -17.37 7.19
    endloop
  endfacet
  facet normal 0 0 -1
    outer loop
      vertex 30.27 -17.37 7.19
      vertex 34.27 -16.37 7.19
      vertex 34.27 -17.37 7.19
    endloop
  endfacet
  facet normal -0 0 -1
    outer loop
      vertex 34.27 -16.37 7.19
      vertex 30.27 -17.37 7.19
      vertex 30.27 -16.37 7.19
    endloop
  endfacet
endsolid OpenSCAD_Model
