solid OpenSCAD_Model
  facet normal -1 0 0
    outer loop
      vertex 20.3 8 -3.5
      vertex 20.3 12.8 11.5
      vertex 20.3 12.8 -3.5
    endloop
  endfacet
  facet normal -1 -0 0
    outer loop
      vertex 20.3 12.8 11.5
      vertex 20.3 8 -3.5
      vertex 20.3 8 11.5
    endloop
  endfacet
  facet normal -0 0 1
    outer loop
      vertex 20.3 8 11.5
      vertex 23.3 7.2 11.5
      vertex 23.3 12.8 11.5
    endloop
  endfacet
  facet normal 0 0 1
    outer loop
      vertex 20.3 8 11.5
      vertex 23.3 12.8 11.5
      vertex 20.3 12.8 11.5
    endloop
  endfacet
  facet normal 0 0 1
    outer loop
      vertex 23.3 7.2 11.5
      vertex 20.3 8 11.5
      vertex 21.1 5.5 11.5
    endloop
  endfacet
  facet normal -0 0 1
    outer loop
      vertex 16.1 8 11.5
      vertex 21.1 5.5 11.5
      vertex 20.3 8 11.5
    endloop
  endfacet
  facet normal 0 0 1
    outer loop
      vertex 21.1 5.5 11.5
      vertex 16.1 8 11.5
      vertex 16.1 -8 11.5
    endloop
  endfacet
  facet normal 0 0 1
    outer loop
      vertex 21.1 5.5 11.5
      vertex 16.1 -8 11.5
      vertex 21.1 -8 11.5
    endloop
  endfacet
  facet normal -0 0 1
    outer loop
      vertex 24.9 12.8 11.5
      vertex 27.9 8 11.5
      vertex 27.9 12.8 11.5
    endloop
  endfacet
  facet normal 0 0 1
    outer loop
      vertex 27.9 8 11.5
      vertex 24.9 12.8 11.5
      vertex 24.9 7.2 11.5
    endloop
  endfacet
  facet normal 0 0 1
    outer loop
      vertex 27.9 8 11.5
      vertex 24.9 7.2 11.5
      vertex 27.1 5.5 11.5
    endloop
  endfacet
  facet normal -0 0 1
    outer loop
      vertex 23.3 7.2 11.5
      vertex 27.1 5.5 11.5
      vertex 24.9 7.2 11.5
    endloop
  endfacet
  facet normal 0 0 1
    outer loop
      vertex 27.1 5.5 11.5
      vertex 23.3 7.2 11.5
      vertex 21.1 5.5 11.5
    endloop
  endfacet
  facet normal 0 0 1
    outer loop
      vertex 27.1 5.5 11.5
      vertex 32.1 8 11.5
      vertex 27.9 8 11.5
    endloop
  endfacet
  facet normal 0 0 1
    outer loop
      vertex 32.1 8 11.5
      vertex 27.1 5.5 11.5
      vertex 32.1 -8 11.5
    endloop
  endfacet
  facet normal 0 0 1
    outer loop
      vertex 32.1 -8 11.5
      vertex 27.1 5.5 11.5
      vertex 27.1 -8 11.5
    endloop
  endfacet
  facet normal 1 -0 0
    outer loop
      vertex 27.9 8 11.5
      vertex 27.9 12.8 -3.5
      vertex 27.9 12.8 11.5
    endloop
  endfacet
  facet normal 1 0 0
    outer loop
      vertex 27.9 12.8 -3.5
      vertex 27.9 8 11.5
      vertex 27.9 8 -3.5
    endloop
  endfacet
  facet normal 0 0 -1
    outer loop
      vertex 16.1 -8 -3.5
      vertex 21.1 5.5 -3.5
      vertex 21.1 -8 -3.5
    endloop
  endfacet
  facet normal 0 0 -1
    outer loop
      vertex 16.1 8 -3.5
      vertex 21.1 5.5 -3.5
      vertex 16.1 -8 -3.5
    endloop
  endfacet
  facet normal 0 0 -1
    outer loop
      vertex 21.1 5.5 -3.5
      vertex 16.1 8 -3.5
      vertex 20.3 8 -3.5
    endloop
  endfacet
  facet normal 0 0 -1
    outer loop
      vertex 27.1 5.5 -3.5
      vertex 23.3 7.2 -3.5
      vertex 24.9 7.2 -3.5
    endloop
  endfacet
  facet normal 0 0 -1
    outer loop
      vertex 21.1 5.5 -3.5
      vertex 23.3 7.2 -3.5
      vertex 27.1 5.5 -3.5
    endloop
  endfacet
  facet normal 0 0 -1
    outer loop
      vertex 20.3 8 -3.5
      vertex 23.3 7.2 -3.5
      vertex 21.1 5.5 -3.5
    endloop
  endfacet
  facet normal 0 0 -1
    outer loop
      vertex 23.3 7.2 -3.5
      vertex 20.3 8 -3.5
      vertex 23.3 12.8 -3.5
    endloop
  endfacet
  facet normal -0 0 -1
    outer loop
      vertex 23.3 12.8 -3.5
      vertex 20.3 8 -3.5
      vertex 20.3 12.8 -3.5
    endloop
  endfacet
  facet normal 0 0 -1
    outer loop
      vertex 27.1 5.5 -3.5
      vertex 32.1 8 -3.5
      vertex 32.1 -8 -3.5
    endloop
  endfacet
  facet normal 0 0 -1
    outer loop
      vertex 27.1 5.5 -3.5
      vertex 32.1 -8 -3.5
      vertex 27.1 -8 -3.5
    endloop
  endfacet
  facet normal -0 0 -1
    outer loop
      vertex 32.1 8 -3.5
      vertex 27.1 5.5 -3.5
      vertex 27.9 8 -3.5
    endloop
  endfacet
  facet normal 0 0 -1
    outer loop
      vertex 24.9 7.2 -3.5
      vertex 27.9 8 -3.5
      vertex 27.1 5.5 -3.5
    endloop
  endfacet
  facet normal 0 0 -1
    outer loop
      vertex 24.9 12.8 -3.5
      vertex 27.9 8 -3.5
      vertex 24.9 7.2 -3.5
    endloop
  endfacet
  facet normal 0 0 -1
    outer loop
      vertex 27.9 8 -3.5
      vertex 24.9 12.8 -3.5
      vertex 27.9 12.8 -3.5
    endloop
  endfacet
  facet normal 0 1 -0
    outer loop
      vertex 27.9 12.8 -3.5
      vertex 24.9 12.8 11.5
      vertex 27.9 12.8 11.5
    endloop
  endfacet
  facet normal 0 1 0
    outer loop
      vertex 24.9 12.8 11.5
      vertex 27.9 12.8 -3.5
      vertex 24.9 12.8 -3.5
    endloop
  endfacet
  facet normal 0 1 -0
    outer loop
      vertex 23.3 12.8 -3.5
      vertex 20.3 12.8 11.5
      vertex 23.3 12.8 11.5
    endloop
  endfacet
  facet normal 0 1 0
    outer loop
      vertex 20.3 12.8 11.5
      vertex 23.3 12.8 -3.5
      vertex 20.3 12.8 -3.5
    endloop
  endfacet
  facet normal -1 0 0
    outer loop
      vertex 16.1 -8 -3.5
      vertex 16.1 8 11.5
      vertex 16.1 8 -3.5
    endloop
  endfacet
  facet normal -1 -0 0
    outer loop
      vertex 16.1 8 11.5
      vertex 16.1 -8 -3.5
      vertex 16.1 -8 11.5
    endloop
  endfacet
  facet normal 1 -0 0
    outer loop
      vertex 32.1 -8 11.5
      vertex 32.1 8 -3.5
      vertex 32.1 8 11.5
    endloop
  endfacet
  facet normal 1 0 0
    outer loop
      vertex 32.1 8 -3.5
      vertex 32.1 -8 11.5
      vertex 32.1 -8 -3.5
    endloop
  endfacet
  facet normal 0 1 -0
    outer loop
      vertex 32.1 8 -3.5
      vertex 27.9 8 11.5
      vertex 32.1 8 11.5
    endloop
  endfacet
  facet normal 0 1 0
    outer loop
      vertex 27.9 8 11.5
      vertex 32.1 8 -3.5
      vertex 27.9 8 -3.5
    endloop
  endfacet
  facet normal 0 1 -0
    outer loop
      vertex 20.3 8 -3.5
      vertex 16.1 8 11.5
      vertex 20.3 8 11.5
    endloop
  endfacet
  facet normal 0 1 0
    outer loop
      vertex 16.1 8 11.5
      vertex 20.3 8 -3.5
      vertex 16.1 8 -3.5
    endloop
  endfacet
  facet normal 0 -1 0
    outer loop
      vertex 27.1 -8 -3.5
      vertex 32.1 -8 11.5
      vertex 27.1 -8 11.5
    endloop
  endfacet
  facet normal 0 -1 -0
    outer loop
      vertex 32.1 -8 11.5
      vertex 27.1 -8 -3.5
      vertex 32.1 -8 -3.5
    endloop
  endfacet
  facet normal 0 -1 0
    outer loop
      vertex 16.1 -8 -3.5
      vertex 21.1 -8 11.5
      vertex 16.1 -8 11.5
    endloop
  endfacet
  facet normal 0 -1 -0
    outer loop
      vertex 21.1 -8 11.5
      vertex 16.1 -8 -3.5
      vertex 21.1 -8 -3.5
    endloop
  endfacet
  facet normal 1 -0 0
    outer loop
      vertex 23.3 7.2 11.5
      vertex 23.3 12.8 -3.5
      vertex 23.3 12.8 11.5
    endloop
  endfacet
  facet normal 1 0 0
    outer loop
      vertex 23.3 12.8 -3.5
      vertex 23.3 7.2 11.5
      vertex 23.3 7.2 -3.5
    endloop
  endfacet
  facet normal -1 0 0
    outer loop
      vertex 24.9 7.2 -3.5
      vertex 24.9 12.8 11.5
      vertex 24.9 12.8 -3.5
    endloop
  endfacet
  facet normal -1 -0 0
    outer loop
      vertex 24.9 12.8 11.5
      vertex 24.9 7.2 -3.5
      vertex 24.9 7.2 11.5
    endloop
  endfacet
  facet normal 0 1 -0
    outer loop
      vertex 24.9 7.2 -3.5
      vertex 23.3 7.2 11.5
      vertex 24.9 7.2 11.5
    endloop
  endfacet
  facet normal 0 1 0
    outer loop
      vertex 23.3 7.2 11.5
      vertex 24.9 7.2 -3.5
      vertex 23.3 7.2 -3.5
    endloop
  endfacet
  facet normal 1 -0 0
    outer loop
      vertex 21.1 -8 11.5
      vertex 21.1 5.5 -3.5
      vertex 21.1 5.5 11.5
    endloop
  endfacet
  facet normal 1 0 0
    outer loop
      vertex 21.1 5.5 -3.5
      vertex 21.1 -8 11.5
      vertex 21.1 -8 -3.5
    endloop
  endfacet
  facet normal -1 0 0
    outer loop
      vertex 27.1 -8 -3.5
      vertex 27.1 5.5 11.5
      vertex 27.1 5.5 -3.5
    endloop
  endfacet
  facet normal -1 -0 0
    outer loop
      vertex 27.1 5.5 11.5
      vertex 27.1 -8 -3.5
      vertex 27.1 -8 11.5
    endloop
  endfacet
  facet normal 0 -1 0
    outer loop
      vertex 21.1 5.5 -3.5
      vertex 27.1 5.5 11.5
      vertex 21.1 5.5 11.5
    endloop
  endfacet
  facet normal 0 -1 -0
    outer loop
      vertex 27.1 5.5 11.5
      vertex 21.1 5.5 -3.5
      vertex 27.1 5.5 -3.5
    endloop
  endfacet
endsolid OpenSCAD_Model
